# This file uses meters as units for non-parametric coordinates.

mtllib heart_pot.mtl
g default
v 20.223518 27.282441 -189.938606
v 44.607690 27.203714 -189.864195
v 32.415601 27.203714 -211.166914
v 32.415605 27.203714 -183.010498
v 44.607688 27.203714 -204.061264
v 20.223516 27.203714 -204.020939
v 32.415603 27.692808 -196.633211
v 18.337396 27.212241 -197.047681
v 25.376501 27.232553 -184.871875
v 32.415604 27.387393 -189.759193
v 26.319560 27.385369 -199.938135
v 26.319561 27.666753 -192.927110
v 39.454709 27.203714 -184.860148
v 46.493811 27.203714 -197.037030
v 38.511646 27.320596 -200.070673
v 38.511647 27.340404 -192.604198
v 39.454706 27.203714 -209.270584
v 25.376498 27.203714 -209.259767
v 32.415602 27.341108 -203.951845
vt 0.066987 0.250000
vt 0.933013 0.250000
vt 0.500000 1.000000
vt 0.500000 0.000000
vt 0.933013 0.750000
vt 0.066987 0.750000
vt 0.500000 0.500000
vt 0.000000 0.500000
vt 0.250000 0.066987
vt 0.500000 0.250000
vt 0.283494 0.625000
vt 0.283494 0.375000
vt 0.750000 0.066987
vt 1.000000 0.500000
vt 0.716506 0.625000
vt 0.716506 0.375000
vt 0.750000 0.933013
vt 0.250000 0.933013
vt 0.500000 0.750000
vn -0.030672 0.999221 -0.024852
vn -0.030672 0.999221 -0.024852
vn -0.030672 0.999220 -0.024852
vn -0.030672 0.999220 -0.024852
vn -0.049679 0.998399 0.027055
vn -0.049679 0.998399 0.027055
vn -0.049679 0.998399 0.027055
vn -0.049679 0.998399 0.027055
vn 0.007298 0.999084 0.042164
vn 0.007298 0.999084 0.042164
vn 0.007298 0.999084 0.042164
vn 0.007298 0.999084 0.042164
vn -0.003222 0.999993 0.001731
vn -0.003222 0.999993 0.001731
vn -0.003222 0.999993 0.001731
vn -0.003222 0.999993 0.001731
vn 0.011214 0.999709 0.021369
vn 0.011214 0.999709 0.021369
vn 0.011214 0.999709 0.021369
vn 0.011214 0.999709 0.021369
vn 0.017794 0.999789 0.010286
vn 0.017794 0.999789 0.010286
vn 0.017794 0.999789 0.010286
vn 0.017794 0.999789 0.010286
vn 0.015949 0.999867 -0.003443
vn 0.015949 0.999867 -0.003443
vn 0.015949 0.999867 -0.003443
vn 0.015949 0.999867 -0.003443
vn 0.044592 0.998807 0.019892
vn 0.044592 0.998807 0.019892
vn 0.044592 0.998807 0.019892
vn 0.044592 0.998807 0.019892
vn 0.011164 0.999871 -0.011559
vn 0.011164 0.999871 -0.011559
vn 0.011164 0.999871 -0.011559
vn 0.011164 0.999871 -0.011559
vn -0.000015 0.999819 -0.019039
vn -0.000015 0.999819 -0.019039
vn -0.000015 0.999819 -0.019039
vn -0.000015 0.999819 -0.019039
vn -0.011163 0.999769 -0.018354
vn -0.011163 0.999769 -0.018354
vn -0.011163 0.999769 -0.018354
vn -0.011163 0.999769 -0.018354
vn 0.004785 0.998836 -0.047999
vn 0.004785 0.998836 -0.047999
vn 0.004785 0.998836 -0.047999
vn 0.004785 0.998836 -0.048000
s off
g pDisc10
usemtl initialShadingGroup
f 11/11/1 6/6/2 8/8/3 12/12/4
f 8/8/5 1/1/6 9/9/7 12/12/8
f 9/9/9 4/4/10 10/10/11 12/12/12
f 10/10/13 7/7/14 11/11/15 12/12/16
f 10/10/17 4/4/18 13/13/19 16/16/20
f 13/13/21 2/2/22 14/14/23 16/16/24
f 14/14/25 5/5/26 15/15/27 16/16/28
f 15/15/29 7/7/30 10/10/31 16/16/32
f 15/15/33 5/5/34 17/17/35 19/19/36
f 17/17/37 3/3/38 18/18/39 19/19/40
f 18/18/41 6/6/42 11/11/43 19/19/44
f 11/11/45 7/7/46 15/15/47 19/19/48
g default
v 41.277340 -3.649176 -206.257263
v 32.437118 -3.649176 -209.919009
v 23.596892 -3.649176 -206.257263
v 19.935159 -3.649176 -197.417026
v 23.596892 -3.649176 -188.576801
v 32.437118 -3.649176 -184.915064
v 41.277347 -3.649176 -188.576801
v 44.939082 -3.649176 -197.417026
v 45.061163 22.158305 -210.041076
v 32.437118 22.158305 -215.270119
v 19.813076 22.158305 -210.041076
v 14.584023 22.158305 -197.417026
v 19.813076 22.158305 -184.792987
v 32.437118 22.158305 -179.563934
v 45.061164 22.158305 -184.792987
v 50.290216 22.158305 -197.417026
v 32.437118 -3.649176 -197.417026
v 32.419519 0.757586 -197.428233
v 39.468056 0.718866 -204.480380
v 32.524161 0.422990 -207.230219
v 25.475741 0.680117 -204.280601
v 22.528663 0.757586 -197.424497
v 25.499035 0.757586 -190.507751
v 32.511126 0.984293 -187.685072
v 39.435907 0.823993 -190.573506
v 42.218006 0.770684 -197.370293
v 32.579445 30.881329 -210.605481
v 42.030581 31.297660 -206.989925
v 23.013407 31.243442 -206.698129
v 18.820496 31.358179 -197.408293
v 22.798520 31.355996 -187.766144
v 32.567783 31.665073 -183.736350
v 42.255216 31.445869 -187.811156
v 45.996351 31.376225 -197.332678
v 32.581391 20.919207 -211.005592
v 42.284717 21.344766 -207.275983
v 46.325503 21.424318 -197.358283
v 42.478254 21.496223 -187.620079
v 32.568578 21.721133 -183.456386
v 22.569776 21.403883 -187.567722
v 18.476642 21.405818 -197.435672
v 22.756319 21.289307 -206.979157
v 45.871737 21.862637 -210.859722
v 32.436261 21.862637 -216.424870
v 32.433929 31.638151 -216.053476
v 45.721477 31.646350 -210.682259
v 19.000788 21.862637 -210.859722
v 19.177733 31.645605 -210.665370
v 13.435630 21.862637 -197.424242
v 13.481941 31.653848 -197.420444
v 19.000788 21.862637 -183.988773
v 18.914798 31.651524 -183.889685
v 32.436261 21.862637 -178.423614
v 32.440675 31.647240 -178.184675
v 45.871738 21.862637 -183.988773
v 46.007813 31.649565 -183.840925
v 51.436895 21.862637 -197.424242
v 51.465269 31.653801 -197.419644
vt 0.610485 0.045765
vt 0.500000 0.000000
vt 0.389515 0.045765
vt 0.343750 0.156250
vt 0.389515 0.266735
vt 0.500000 0.312500
vt 0.610485 0.266735
vt 0.656250 0.156250
vt 0.375000 0.312500
vt 0.406250 0.312500
vt 0.437500 0.312500
vt 0.468750 0.312500
vt 0.500000 0.312500
vt 0.531250 0.312500
vt 0.562500 0.312500
vt 0.593750 0.312500
vt 0.625000 0.312500
vt 0.375000 0.688440
vt 0.406250 0.688440
vt 0.437500 0.688440
vt 0.468750 0.688440
vt 0.500000 0.688440
vt 0.531250 0.688440
vt 0.562500 0.688440
vt 0.593750 0.688440
vt 0.625000 0.688440
vt 0.610485 0.733265
vt 0.500000 0.687500
vt 0.389515 0.733265
vt 0.343750 0.843750
vt 0.389515 0.954235
vt 0.500000 1.000000
vt 0.610485 0.954235
vt 0.656250 0.843750
vt 0.500000 0.150000
vt 0.500000 0.837500
vt 0.582770 0.924952
vt 0.500000 0.938879
vt 0.421925 0.919992
vt 0.382953 0.842182
vt 0.416350 0.758582
vt 0.500000 0.738068
vt 0.578800 0.763158
vt 0.611733 0.841969
vt 0.500000 0.938879
vt 0.582770 0.924952
vt 0.421925 0.919992
vt 0.382953 0.842182
vt 0.416350 0.758582
vt 0.500000 0.738068
vt 0.578800 0.763158
vt 0.611733 0.841969
vt 0.500000 0.938879
vt 0.582770 0.924952
vt 0.611733 0.841969
vt 0.578800 0.763158
vt 0.500000 0.738068
vt 0.416350 0.758582
vt 0.382953 0.842182
vt 0.421925 0.919992
vt 0.610485 0.954235
vt 0.500000 1.000000
vt 0.500000 1.000000
vt 0.610485 0.954235
vt 0.389515 0.954235
vt 0.389515 0.954235
vt 0.343750 0.843750
vt 0.343750 0.843750
vt 0.389515 0.733265
vt 0.389515 0.733265
vt 0.500000 0.687500
vt 0.500000 0.687500
vt 0.610485 0.733265
vt 0.610485 0.733265
vt 0.656250 0.843750
vt 0.656250 0.843750
vn 0.375849 -0.188143 -0.907381
vn 0.375849 -0.188143 -0.907381
vn 0.375849 -0.188143 -0.907381
vn 0.375849 -0.188143 -0.907381
vn -0.375849 -0.188143 -0.907381
vn -0.375849 -0.188143 -0.907381
vn -0.375849 -0.188143 -0.907381
vn -0.375849 -0.188143 -0.907381
vn -0.907381 -0.188144 -0.375849
vn -0.907381 -0.188144 -0.375849
vn -0.907381 -0.188144 -0.375849
vn -0.907381 -0.188144 -0.375849
vn -0.907381 -0.188144 0.375849
vn -0.907381 -0.188144 0.375849
vn -0.907381 -0.188143 0.375849
vn -0.907381 -0.188143 0.375849
vn -0.375849 -0.188143 0.907381
vn -0.375849 -0.188143 0.907381
vn -0.375849 -0.188143 0.907381
vn -0.375849 -0.188143 0.907381
vn 0.375849 -0.188143 0.907381
vn 0.375849 -0.188143 0.907381
vn 0.375849 -0.188143 0.907381
vn 0.375849 -0.188143 0.907381
vn 0.907381 -0.188144 0.375849
vn 0.907381 -0.188144 0.375849
vn 0.907381 -0.188143 0.375849
vn 0.907381 -0.188143 0.375849
vn 0.907381 -0.188144 -0.375849
vn 0.907381 -0.188144 -0.375849
vn 0.907381 -0.188144 -0.375849
vn 0.907381 -0.188144 -0.375849
vn 0.000000 -1.000000 0.000000
vn 0.000000 -1.000000 0.000000
vn 0.000000 -1.000000 -0.000000
vn 0.000000 -1.000000 0.000000
vn 0.000000 -1.000000 0.000000
vn 0.000000 -1.000000 -0.000000
vn 0.000000 -1.000000 0.000000
vn 0.000000 -1.000000 -0.000000
vn 0.000000 -1.000000 -0.000000
vn -0.015066 0.999675 -0.020547
vn -0.003693 0.999410 -0.034155
vn -0.002272 0.999840 -0.017714
vn 0.011117 0.999683 -0.022567
vn -0.000002 0.999984 -0.005622
vn -0.011383 0.999870 -0.011383
vn -0.004823 0.999719 -0.023216
vn 0.006053 0.999855 -0.015882
vn -0.001292 0.999971 -0.007560
vn -0.057264 0.993542 0.097956
vn -0.057264 0.993542 0.097956
vn -0.057264 0.993542 0.097956
vn -0.057264 0.993542 0.097956
vn 0.056220 0.993545 0.098530
vn 0.056220 0.993545 0.098530
vn 0.056220 0.993545 0.098530
vn 0.056220 0.993545 0.098530
vn 0.065729 0.997563 0.023399
vn 0.065729 0.997563 0.023399
vn 0.065729 0.997563 0.023399
vn 0.065729 0.997563 0.023399
vn 0.054757 0.998256 -0.022043
vn 0.054757 0.998256 -0.022043
vn 0.054757 0.998256 -0.022043
vn 0.054757 0.998256 -0.022043
vn -0.000658 0.999558 -0.029721
vn -0.000658 0.999558 -0.029721
vn -0.000658 0.999558 -0.029721
vn -0.000658 0.999558 -0.029721
vn 0.000999 0.999802 -0.019896
vn 0.000999 0.999802 -0.019896
vn 0.000999 0.999802 -0.019896
vn 0.000999 0.999802 -0.019896
vn -0.043624 0.998844 -0.020199
vn -0.043624 0.998844 -0.020199
vn -0.043624 0.998844 -0.020199
vn -0.043624 0.998844 -0.020199
vn -0.059398 0.998005 0.021417
vn -0.059398 0.998005 0.021417
vn -0.059398 0.998005 0.021417
vn -0.059398 0.998005 0.021417
vn 0.378592 0.028913 -0.925112
vn 0.378592 0.028913 -0.925112
vn 0.378592 0.028913 -0.925112
vn 0.378592 0.028913 -0.925112
vn -0.363015 0.099402 0.926466
vn -0.362875 0.093765 0.927109
vn -0.356397 -0.036750 0.933612
vn -0.356397 -0.036750 0.933612
vn -0.379461 0.030136 -0.924717
vn -0.379461 0.030136 -0.924717
vn -0.379461 0.030136 -0.924717
vn -0.379461 0.030136 -0.924717
vn 0.382089 0.092009 0.919534
vn 0.382142 0.096363 0.919066
vn 0.377244 -0.036481 0.925395
vn 0.377244 -0.036481 0.925395
vn -0.921203 0.014443 -0.388815
vn -0.921203 0.014443 -0.388815
vn -0.921203 0.014443 -0.388815
vn -0.921203 0.014443 -0.388815
vn 0.909956 0.098127 0.402930
vn 0.909816 0.100078 0.402766
vn 0.911286 -0.033868 0.410378
vn 0.911286 -0.033868 0.410378
vn -0.925944 -0.003861 0.377640
vn -0.925944 -0.003861 0.377640
vn -0.925944 -0.003861 0.377640
vn -0.925944 -0.003861 0.377640
vn 0.917556 0.104208 -0.383707
vn 0.917533 0.104423 -0.383704
vn 0.923636 -0.029854 -0.382106
vn 0.923636 -0.029854 -0.382106
vn -0.385616 -0.017538 0.922493
vn -0.385616 -0.017538 0.922493
vn -0.385616 -0.017538 0.922493
vn -0.385616 -0.017538 0.922493
vn 0.373724 0.105432 -0.921528
vn 0.373395 0.109337 -0.921206
vn 0.381389 -0.026587 -0.924032
vn 0.381389 -0.026587 -0.924032
vn 0.383667 -0.021000 0.923233
vn 0.383667 -0.021000 0.923233
vn 0.383667 -0.021000 0.923233
vn 0.383667 -0.021000 0.923233
vn -0.382292 0.110264 -0.917439
vn -0.382469 0.107642 -0.917677
vn -0.387912 -0.026180 -0.921324
vn -0.387912 -0.026180 -0.921324
vn 0.925838 -0.010718 0.377769
vn 0.925838 -0.010718 0.377768
vn 0.925838 -0.010718 0.377768
vn 0.925838 -0.010718 0.377769
vn -0.923306 0.107697 -0.368657
vn -0.923446 0.106460 -0.368666
vn -0.930073 -0.028851 -0.366239
vn -0.930073 -0.028851 -0.366239
vn 0.920758 0.009361 -0.390023
vn 0.920758 0.009361 -0.390023
vn 0.920758 0.009361 -0.390023
vn 0.920758 0.009361 -0.390023
vn -0.923060 0.102484 0.370753
vn -0.923152 0.101277 0.370854
vn -0.924971 -0.033033 0.378599
vn -0.924971 -0.033033 0.378599
vn -0.363781 0.171716 0.915520
vn -0.363781 0.171716 0.915520
vn -0.914514 0.177900 0.363339
vn -0.914514 0.177900 0.363339
vn -0.911834 0.184091 -0.366974
vn -0.911834 0.184091 -0.366974
vn -0.376048 0.185605 -0.907821
vn -0.376048 0.185605 -0.907821
vn 0.366026 0.183444 -0.912345
vn 0.366026 0.183444 -0.912345
vn 0.906606 0.180330 -0.381506
vn 0.906606 0.180330 -0.381506
vn 0.901890 0.173992 0.395375
vn 0.901890 0.173992 0.395375
vn 0.381968 0.167871 0.908801
vn 0.381968 0.167871 0.908801
vn -0.102234 -0.963655 0.246815
vn -0.102234 -0.963655 0.246815
vn -0.102234 -0.963655 0.246815
vn -0.102234 -0.963655 0.246815
vn 0.102176 -0.963697 0.246674
vn 0.102176 -0.963697 0.246674
vn 0.102176 -0.963697 0.246674
vn 0.102176 -0.963697 0.246674
vn 0.247415 -0.963475 0.102483
vn 0.247415 -0.963475 0.102483
vn 0.247415 -0.963475 0.102483
vn 0.247415 -0.963475 0.102483
vn 0.248613 -0.963113 -0.102979
vn 0.248613 -0.963113 -0.102979
vn 0.248613 -0.963113 -0.102979
vn 0.248613 -0.963113 -0.102979
vn 0.103375 -0.962824 -0.249568
vn 0.103375 -0.962824 -0.249568
vn 0.103375 -0.962824 -0.249568
vn 0.103375 -0.962824 -0.249568
vn -0.103434 -0.962780 -0.249713
vn -0.103434 -0.962780 -0.249713
vn -0.103434 -0.962780 -0.249712
vn -0.103434 -0.962780 -0.249713
vn -0.248958 -0.963009 -0.103122
vn -0.248958 -0.963009 -0.103122
vn -0.248958 -0.963009 -0.103122
vn -0.248958 -0.963009 -0.103122
vn -0.247757 -0.963372 0.102625
vn -0.247757 -0.963372 0.102625
vn -0.247757 -0.963372 0.102625
vn -0.247757 -0.963372 0.102625
s off
g pCylinder16 pot3
usemtl lambert13SG
f 29/38/49 28/37/50 20/28/51 21/29/52
f 30/39/53 29/38/54 21/29/55 22/30/56
f 31/40/57 30/39/58 22/30/59 23/31/60
f 32/41/61 31/40/62 23/31/63 24/32/64
f 33/42/65 32/41/66 24/32/67 25/33/68
f 34/43/69 33/42/70 25/33/71 26/34/72
f 35/44/73 34/43/74 26/34/75 27/35/76
f 20/36/77 28/45/78 35/44/79 27/35/80
s 1
f 21/21/81 20/20/82 36/54/83
f 22/22/84 21/21/81 36/54/83
f 23/23/85 22/22/84 36/54/83
f 24/24/86 23/23/85 36/54/83
f 25/25/87 24/24/86 36/54/83
f 26/26/88 25/25/87 36/54/83
f 27/27/89 26/26/88 36/54/83
f 20/20/82 27/27/89 36/54/83
s 2
f 38/56/90 39/57/91 37/55/92
f 39/57/91 40/58/93 37/55/92
f 40/58/93 41/59/94 37/55/92
f 41/59/94 42/60/95 37/55/92
f 42/60/95 43/61/96 37/55/92
f 43/61/96 44/62/97 37/55/92
f 44/62/97 45/63/98 37/55/92
f 45/63/98 38/56/90 37/55/92
s off
f 46/64/99 47/65/100 65/83/101 64/82/102
f 48/66/103 46/64/104 64/82/105 67/85/106
f 49/67/107 48/66/108 67/85/109 69/87/110
f 50/68/111 49/67/112 69/87/113 71/89/114
f 51/69/115 50/68/116 71/89/117 73/91/118
f 52/70/119 51/69/120 73/91/121 75/93/122
f 53/71/123 52/70/124 75/93/125 77/95/126
f 47/65/127 53/71/128 77/95/129 65/83/130
f 62/80/131 63/81/132 64/82/133 65/83/134
s 3
f 54/72/135 55/73/136 47/65/137 46/64/138
s off
f 63/81/139 66/84/140 67/85/141 64/82/142
s 4
f 61/79/143 54/72/144 46/64/145 48/66/146
s off
f 66/84/147 68/86/148 69/87/149 67/85/150
s 5
f 60/78/151 61/79/152 48/66/153 49/67/154
s off
f 68/86/155 70/88/156 71/89/157 69/87/158
s 6
f 59/77/159 60/78/160 49/67/161 50/68/162
s off
f 70/88/163 72/90/164 73/91/165 71/89/166
s 7
f 58/76/167 59/77/168 50/68/169 51/69/170
s off
f 72/90/171 74/92/172 75/93/173 73/91/174
s 8
f 57/75/175 58/76/176 51/69/177 52/70/178
s off
f 74/92/179 76/94/180 77/95/181 75/93/182
s 9
f 56/74/183 57/75/184 52/70/185 53/71/186
s off
f 76/94/187 62/80/188 65/83/189 77/95/190
s 10
f 55/73/191 56/74/192 53/71/193 47/65/194
s 3
f 39/57/195 38/56/196 55/73/136 54/72/135
s 10
f 38/56/197 45/63/198 56/74/192 55/73/191
s 9
f 45/63/199 44/62/200 57/75/184 56/74/183
s 8
f 44/62/201 43/61/202 58/76/176 57/75/175
s 7
f 43/61/203 42/60/204 59/77/168 58/76/167
s 6
f 42/60/205 41/59/206 60/78/160 59/77/159
s 5
f 41/59/207 40/58/208 61/79/152 60/78/151
s 4
f 40/58/209 39/57/210 54/72/144 61/79/143
s off
f 28/52/211 29/51/212 63/81/213 62/80/214
f 29/51/215 30/50/216 66/84/217 63/81/218
f 30/50/219 31/49/220 68/86/221 66/84/222
f 31/49/223 32/48/224 70/88/225 68/86/226
f 32/48/227 33/47/228 72/90/229 70/88/230
f 33/47/231 34/46/232 74/92/233 72/90/234
f 34/46/235 35/53/236 76/94/237 74/92/238
f 35/53/239 28/52/240 62/80/241 76/94/242
g default
v 21.706921 15.932244 -208.839356
v 24.122576 17.739515 -210.236168
v 26.804950 16.002725 -210.998475
v 29.215803 17.873793 -212.406735
v 31.918576 15.865978 -213.120500
v 22.285661 12.927813 -208.433395
v 24.326986 15.024956 -209.733857
v 27.009353 13.288168 -210.496162
v 29.420212 15.159238 -211.904410
v 31.791942 12.866120 -212.418834
v 24.704606 10.010320 -208.803398
v 27.447158 7.473883 -209.422546
v 29.797833 10.144599 -210.973966
v 21.064962 15.599330 -210.382040
v 23.475030 17.406184 -211.776427
v 23.679556 14.691404 -211.274118
v 21.644902 12.594096 -209.976411
v 26.157403 15.668966 -212.538627
v 26.361821 12.954389 -212.036315
v 28.567693 17.540482 -213.946732
v 28.771995 14.825713 -213.444330
v 31.264327 15.533127 -214.658029
v 31.136526 12.532456 -213.955681
v 26.799632 7.140095 -210.962685
v 24.057645 9.676167 -210.343725
v 29.149181 9.810458 -212.513554
vt 0.000000 0.000000
vt 0.250000 0.000000
vt 0.500000 0.000000
vt 0.750000 0.000000
vt 1.000000 0.000000
vt 0.000000 0.250000
vt 0.250000 0.250000
vt 0.500000 0.250000
vt 0.750000 0.250000
vt 1.000000 0.250000
vt 0.250000 0.750000
vt 0.500000 0.750000
vt 0.750000 0.750000
vt 0.000000 0.000000
vt 0.250000 0.000000
vt 0.250000 0.250000
vt 0.000000 0.250000
vt 0.500000 0.000000
vt 0.500000 0.250000
vt 0.750000 0.000000
vt 0.750000 0.250000
vt 1.000000 0.000000
vt 1.000000 0.250000
vt 0.500000 0.750000
vt 0.250000 0.750000
vt 0.750000 0.750000
vt 0.000000 0.000000
vt 0.250000 0.000000
vt 0.000000 0.250000
vt 0.500000 0.000000
vt 0.750000 0.000000
vt 1.000000 0.000000
vt 1.000000 0.250000
vt 0.500000 0.750000
vt 0.250000 0.750000
vt 0.750000 0.750000
vn -0.376787 -0.195397 -0.905457
vn -0.380063 -0.195643 -0.904033
vn -0.380650 -0.195774 -0.903758
vn -0.375978 -0.195934 -0.905677
vn -0.380045 -0.195894 -0.903986
vn -0.380055 -0.195912 -0.903978
vn -0.380412 -0.195632 -0.903889
vn -0.379805 -0.195763 -0.904116
vn -0.384007 -0.195361 -0.902426
vn -0.384803 -0.195913 -0.901967
vn -0.380147 -0.195916 -0.903939
vn -0.383175 -0.195951 -0.902652
vn -0.377054 -0.195967 -0.905222
vn 0.376790 0.195398 0.905455
vn 0.375985 0.195934 0.905674
vn 0.380650 0.195774 0.903758
vn 0.380062 0.195643 0.904034
vn 0.380059 0.195911 0.903977
vn 0.380047 0.195896 0.903985
vn 0.379806 0.195763 0.904115
vn 0.380413 0.195634 0.903888
vn 0.384790 0.195912 0.901973
vn 0.383998 0.195363 0.902430
vn 0.383176 0.195950 0.902651
vn 0.380151 0.195914 0.903938
vn 0.377060 0.195965 0.905220
vn -0.574309 0.816145 0.063842
vn -0.574309 0.816145 0.063842
vn -0.574309 0.816145 0.063842
vn -0.574309 0.816145 0.063842
vn -0.907177 -0.120464 0.403136
vn -0.907177 -0.120464 0.403136
vn -0.907177 -0.120464 0.403136
vn -0.907177 -0.120464 0.403136
vn 0.432541 0.826280 -0.360791
vn 0.432541 0.826280 -0.360791
vn 0.432541 0.826280 -0.360791
vn 0.432541 0.826280 -0.360791
vn -0.585323 0.807659 0.071299
vn -0.585323 0.807659 0.071299
vn -0.585323 0.807659 0.071299
vn -0.585323 0.807659 0.071299
vn 0.486738 0.788202 -0.376594
vn 0.486738 0.788202 -0.376594
vn 0.486738 0.788202 -0.376594
vn 0.486738 0.788202 -0.376594
vn 0.922281 -0.124709 -0.365849
vn 0.922281 -0.124709 -0.365849
vn 0.922281 -0.124709 -0.365849
vn 0.922281 -0.124709 -0.365849
vn -0.573520 -0.716872 0.396447
vn -0.625964 -0.665579 0.406416
vn -0.625929 -0.665615 0.406410
vn -0.573520 -0.716871 0.396447
vn 0.723641 -0.671377 -0.159990
vn 0.700299 -0.699368 -0.143060
vn 0.700299 -0.699368 -0.143060
vn 0.723628 -0.671393 -0.159981
vn 0.747052 -0.640599 -0.177612
vn 0.747052 -0.640599 -0.177612
vn -0.674699 -0.610971 0.414120
vn -0.674699 -0.610971 0.414120
s 1
g pot3 pPlane15
usemtl lambert14SG
f 91/122/243 92/123/244 93/102/245 94/124/246
f 92/123/244 95/125/247 96/103/248 93/102/245
f 95/125/247 97/126/249 98/104/250 96/103/248
f 97/126/249 99/127/251 100/128/252 98/104/250
f 96/103/248 101/129/253 102/130/254 93/102/245
f 98/104/250 103/131/255 101/129/253 96/103/248
f 100/128/252 103/131/255 98/104/250
f 93/102/245 102/130/254 94/124/246
s 2
f 78/109/256 83/112/257 84/111/258 79/110/259
f 79/110/259 84/111/258 85/114/260 80/113/261
f 80/113/261 85/114/260 86/116/262 81/115/263
f 81/115/263 86/116/262 87/118/264 82/117/265
f 85/114/260 84/111/258 88/120/266 89/119/267
f 86/116/262 85/114/260 89/119/267 90/121/268
f 87/118/264 86/116/262 90/121/268
f 84/111/258 83/112/257 88/120/266
s off
f 78/96/269 79/97/270 92/123/271 91/122/272
f 83/101/273 78/96/274 91/122/275 94/124/276
f 79/97/277 80/98/278 95/125/279 92/123/280
f 80/98/281 81/99/282 97/126/283 95/125/284
f 81/99/285 82/100/286 99/127/287 97/126/288
f 82/100/289 87/105/290 100/128/291 99/127/292
s 3
f 89/107/293 88/106/294 102/130/295 101/129/296
s 4
f 90/108/297 89/107/298 101/129/299 103/131/300
f 87/105/301 90/108/297 103/131/300 100/128/302
s 3
f 88/106/294 83/101/303 94/124/304 102/130/295
