# This file uses meters as units for non-parametric coordinates.

mtllib big_rock_2.mtl
g default
v 100.547974 -11.325882 -395.852693
v 193.973532 -11.316160 -395.848609
v 107.238271 117.849350 -405.167363
v 177.737543 95.838219 -405.317104
v 110.717188 119.873709 -455.181365
v 178.538260 97.745561 -461.559246
v 100.507293 -11.360708 -455.679256
v 193.932922 -11.350933 -466.239728
v 111.865569 84.743120 -463.805947
v 189.219944 69.221416 -471.168410
v 179.108792 64.873757 -393.634117
v 107.692167 91.747166 -398.078943
v 129.721493 -11.327130 -395.853249
v 129.680812 -11.361973 -466.244379
v 144.914663 74.248644 -476.128109
v 140.868568 119.126410 -466.059420
v 138.089125 119.253172 -398.002927
v 130.860103 72.697366 -389.182001
v 104.008239 126.971550 -428.159679
v 141.316318 123.656731 -429.057246
v 185.793132 101.629756 -431.783899
v 201.780154 73.644237 -430.297327
v 193.948236 -11.337819 -427.950139
v 129.696155 -11.348830 -427.954779
v 100.522636 -11.347565 -427.954253
v 94.472049 103.746099 -427.348406
v 95.388271 9.318473 -398.039626
v 131.564597 -0.140738 -394.378816
v 199.327080 9.333877 -390.394094
v 203.627205 -0.157899 -426.904495
v 201.812110 12.481683 -471.696297
v 143.981863 12.827129 -488.825244
v 93.896808 12.471223 -464.061654
v 89.601360 17.615012 -426.910876
vt 0.375000 0.000000
vt 0.625000 0.000000
vt 0.375000 0.250000
vt 0.625000 0.250000
vt 0.375000 0.500000
vt 0.625000 0.500000
vt 0.375000 0.750000
vt 0.625000 0.750000
vt 0.375000 1.000000
vt 0.625000 1.000000
vt 0.875000 0.000000
vt 0.875000 0.250000
vt 0.125000 0.000000
vt 0.125000 0.250000
vt 0.125000 0.184606
vt 0.375000 0.565394
vt 0.625000 0.565394
vt 0.875000 0.184606
vt 0.625000 0.184606
vt 0.375000 0.184606
vt 0.453080 0.000000
vt 0.453080 1.000000
vt 0.453080 0.750000
vt 0.453080 0.565394
vt 0.453080 0.500000
vt 0.453080 0.250000
vt 0.453080 0.184606
vt 0.255044 0.250000
vt 0.375000 0.369956
vt 0.453080 0.369956
vt 0.625000 0.369956
vt 0.744956 0.250000
vt 0.744956 0.184606
vt 0.625000 0.880044
vt 0.744956 0.000000
vt 0.453080 0.880044
vt 0.255044 0.000000
vt 0.375000 0.880044
vt 0.255044 0.184606
vt 0.375000 0.028732
vt 0.453080 0.028732
vt 0.625000 0.028732
vt 0.744956 0.028732
vt 0.625000 0.721268
vt 0.875000 0.028732
vt 0.453080 0.721268
vt 0.125000 0.028732
vt 0.375000 0.721268
vt 0.255044 0.028732
vn 0.362434 0.056384 0.930303
vn 0.004235 -0.014550 0.999885
vn 0.004235 -0.014550 0.999885
vn 0.562979 0.097183 0.820738
vn 0.308653 0.950675 0.030823
vn 0.463690 0.870834 -0.163218
vn 0.371689 0.643439 -0.669204
vn 0.114975 0.690919 -0.713731
vn 0.216107 0.129635 -0.967725
vn 0.216107 0.129635 -0.967725
vn 0.216107 0.129635 -0.967725
vn 0.216107 0.129635 -0.967725
vn 0.000138 -1.000000 0.000356
vn 0.000172 -1.000000 0.000343
vn 0.000171 -1.000000 0.000494
vn 0.000119 -1.000000 0.000506
vn 0.982330 0.105259 -0.154751
vn 0.982330 0.105259 -0.154751
vn 0.982330 0.105259 -0.154751
vn 0.982330 0.105259 -0.154751
vn -0.937606 0.134822 -0.320497
vn -0.937606 0.134822 -0.320497
vn -0.937606 0.134822 -0.320497
vn -0.937606 0.134822 -0.320497
vn 0.201719 0.291175 -0.935161
vn 0.013070 0.264782 -0.964220
vn 0.848711 0.442224 -0.290048
vn 0.848711 0.442225 -0.290048
vn 0.848711 0.442225 -0.290048
vn 0.848711 0.442225 -0.290048
vn 0.417311 0.286407 0.862451
vn 0.525174 0.520513 0.673245
vn 0.187981 0.623970 0.758501
vn 0.076638 0.237291 0.968411
vn -0.891571 0.183581 -0.414004
vn -0.891571 0.183581 -0.414004
vn -0.558332 0.827796 -0.054943
vn -0.512737 0.776478 -0.366310
vn 0.000029 -1.000000 0.000398
vn -0.000007 -1.000000 0.000535
vn -0.395791 -0.043410 -0.917314
vn -0.388593 0.143126 -0.910226
vn -0.388593 0.143126 -0.910226
vn -0.220049 -0.187833 -0.957234
vn -0.306637 0.197631 -0.931083
vn -0.306637 0.197631 -0.931083
vn -0.387618 0.244831 0.888713
vn -0.425825 0.633481 0.646046
vn -0.214537 -0.016412 0.976578
vn -0.731840 0.057609 0.679037
vn -0.653452 0.045043 0.755627
vn -0.214537 -0.016412 0.976578
vn 0.678029 0.631873 0.375517
vn 0.810393 0.344497 0.473903
vn 0.924357 0.175076 0.338988
vn 0.924357 0.175076 0.338988
vn 0.000171 -1.000000 0.000675
vn 0.000104 -1.000000 0.000675
vn -0.000043 -1.000000 0.000676
vn -0.935665 0.096296 0.339497
vn -0.935665 0.096296 0.339497
vn -0.899469 0.225551 0.374275
vn -0.721939 -0.211916 0.658707
vn -0.030007 -0.121373 0.992153
vn -0.025465 -0.147424 0.988746
vn -0.890810 -0.276964 0.360207
vn 0.393990 -0.371225 0.840811
vn 0.388115 -0.369258 0.844402
vn 0.891499 -0.452975 -0.006568
vn 0.891734 -0.452557 0.001756
vn 0.388489 -0.590564 -0.707326
vn 0.397385 -0.591336 -0.701717
vn -0.165028 -0.510739 -0.843748
vn -0.358793 -0.464558 -0.809601
vn -0.946836 -0.319573 -0.037064
vn -0.949356 -0.314197 0.001667
vn -0.949386 -0.314104 0.002304
vn -0.946836 -0.319573 -0.037064
s 1
g rock_13
usemtl initialShadingGroup
f 11/19/1 18/27/2 28/41/3 29/42/4
s 2
f 20/30/5 21/31/6 6/6/7 16/25/8
s off
f 15/24/9 10/17/10 31/44/11 32/46/12
s 3
f 14/23/13 8/8/14 23/34/15 24/36/16
s off
f 31/45/17 10/18/18 22/33/19 30/43/20
f 26/39/21 9/15/22 33/47/23 34/49/24
s 2
f 6/6/7 10/17/25 15/24/26 16/25/8
s off
f 21/32/27 22/33/28 10/18/29 6/12/30
s 2
f 11/19/31 4/4/32 17/26/33 18/27/34
f 9/15/35 26/39/36 19/28/37 5/14/38
s 3
f 7/7/39 14/23/13 24/36/16 25/38/40
s 5
f 33/48/41 9/16/42 15/24/43 32/46/44
s 2
f 5/5/45 16/25/8 15/24/26 9/16/46
f 19/29/37 20/30/5 16/25/8 5/5/38
f 12/20/47 18/27/34 17/26/33 3/3/48
s 6
f 18/27/49 12/20/50 27/40/51 28/41/52
s 2
f 3/3/48 17/26/33 20/30/5 19/29/37
f 17/26/33 4/4/32 21/31/53 20/30/5
f 11/19/31 22/33/54 21/32/53 4/4/32
s 1
f 22/33/55 11/19/1 29/42/4 30/43/56
s 3
f 23/34/15 2/10/57 13/22/58 24/36/16
f 25/38/40 24/36/16 13/22/58 1/9/59
s 6
f 12/20/50 26/39/60 34/49/61 27/40/51
s 2
f 19/28/37 26/39/62 12/20/47 3/3/48
s 5
f 1/1/63 13/21/64 28/41/65 27/40/66
f 13/21/64 2/2/67 29/42/68 28/41/65
f 2/2/67 23/35/69 30/43/70 29/42/68
f 31/45/71 30/43/70 23/35/69 8/11/72
f 31/44/71 8/8/72 14/23/73 32/46/44
f 33/48/41 32/46/44 14/23/73 7/7/74
f 7/13/75 25/37/76 34/49/77 33/47/78
f 27/40/66 34/49/77 25/37/76 1/1/63
