# This file uses meters as units for non-parametric coordinates.

mtllib big_rock_4.mtl
g default
v -96.185382 -9.181085 -310.100479
v -20.203473 -9.173178 -310.097158
v -85.581099 133.458018 -321.147021
v -37.147221 130.462276 -321.249895
v -83.191040 134.848781 -355.507264
v -36.597118 131.772647 -359.888946
v -96.218467 -9.209409 -358.756720
v -20.236501 -9.201458 -367.345428
v -98.792553 44.069687 -305.977807
v -23.325284 44.081608 -300.778149
v -15.581524 45.763869 -376.291028
v -98.805105 45.754999 -371.100133
v -89.090379 116.117307 -367.178272
v -21.678868 109.138065 -373.594385
v -21.653529 109.577191 -306.026088
v -92.727346 115.334724 -309.899590
v -72.458901 -9.182100 -310.100932
v -72.491987 -9.210437 -367.349210
v -68.153280 42.788333 -385.929957
v -66.575272 100.813784 -377.916584
v -62.476665 134.335384 -362.980623
v -64.386177 134.422473 -316.224964
v -72.537336 108.584674 -302.146230
v -61.515637 64.537622 -289.914311
v -87.800170 139.725085 -336.943029
v -62.169056 137.447772 -337.559668
v -31.612930 134.441146 -339.432912
v -10.733105 116.611770 -337.976733
v -1.621754 42.214036 -335.402399
v -20.224046 -9.190793 -336.204955
v -72.479508 -9.199748 -336.208728
v -96.205989 -9.198719 -336.208301
v -114.951483 42.202201 -335.407387
v -104.248194 123.204231 -335.406857
v -100.381708 7.608726 -311.879086
v -70.959926 -0.084339 -308.901792
v -15.849495 7.621254 -305.661065
v -12.352255 -0.098296 -335.354545
v -13.828450 10.181328 -371.783191
v -66.727457 10.462275 -385.713962
v -101.594696 10.172821 -365.574026
v -105.088134 14.356204 -335.359735
vt 0.375000 0.000000
vt 0.625000 0.000000
vt 0.375000 0.250000
vt 0.625000 0.250000
vt 0.375000 0.500000
vt 0.625000 0.500000
vt 0.375000 0.750000
vt 0.625000 0.750000
vt 0.375000 1.000000
vt 0.625000 1.000000
vt 0.875000 0.000000
vt 0.875000 0.250000
vt 0.125000 0.000000
vt 0.125000 0.250000
vt 0.375000 0.091639
vt 0.625000 0.091639
vt 0.625000 0.658361
vt 0.875000 0.091639
vt 0.125000 0.091639
vt 0.375000 0.658361
vt 0.125000 0.184606
vt 0.375000 0.565394
vt 0.625000 0.565394
vt 0.875000 0.184606
vt 0.625000 0.184606
vt 0.375000 0.184606
vt 0.453080 0.000000
vt 0.453080 1.000000
vt 0.453080 0.750000
vt 0.453080 0.658361
vt 0.453080 0.565394
vt 0.453080 0.500000
vt 0.453080 0.250000
vt 0.453080 0.184606
vt 0.453080 0.091639
vt 0.255044 0.250000
vt 0.375000 0.369956
vt 0.453080 0.369956
vt 0.625000 0.369956
vt 0.744956 0.250000
vt 0.744956 0.184606
vt 0.744956 0.091639
vt 0.625000 0.880044
vt 0.744956 0.000000
vt 0.453080 0.880044
vt 0.255044 0.000000
vt 0.375000 0.880044
vt 0.255044 0.091639
vt 0.255044 0.184606
vt 0.375000 0.028732
vt 0.453080 0.028732
vt 0.625000 0.028732
vt 0.744956 0.028732
vt 0.625000 0.721268
vt 0.875000 0.028732
vt 0.453080 0.721268
vt 0.125000 0.028732
vt 0.375000 0.721268
vt 0.255044 0.028732
vn 0.481919 -0.043404 0.875140
vn 0.197127 0.170871 0.965372
vn 0.197127 0.170871 0.965372
vn 0.142938 0.017067 0.989585
vn 0.078567 0.996636 0.023336
vn 0.100201 0.985662 -0.135760
vn 0.078069 0.709239 -0.700632
vn 0.001173 0.712281 -0.701893
vn 0.130736 0.091954 -0.987144
vn 0.166810 0.032110 -0.985466
vn 0.166094 0.033312 -0.985547
vn 0.130736 0.091954 -0.987144
vn 0.000138 -1.000000 0.000356
vn 0.000172 -1.000000 0.000343
vn 0.000171 -1.000000 0.000494
vn 0.000119 -1.000000 0.000506
vn 0.944088 0.104496 -0.312694
vn 0.960206 0.019551 -0.278606
vn 0.958119 0.033576 -0.284396
vn 0.944088 0.104496 -0.312694
vn -0.742735 0.061843 -0.666724
vn -0.920251 0.058633 -0.386912
vn -0.896523 0.131894 -0.422907
vn -0.896523 0.131894 -0.422907
vn 0.047916 -0.230447 0.971905
vn 0.511119 -0.184997 0.839365
vn 0.968549 -0.124234 -0.215587
vn 0.968549 -0.124234 -0.215587
vn 0.219130 -0.057495 -0.974000
vn 0.219130 -0.057495 -0.974000
vn -0.703470 -0.211505 -0.678524
vn -0.950465 -0.130779 -0.281980
vn 0.055105 0.462063 -0.885134
vn -0.031976 0.469586 -0.882307
vn 0.662950 0.680795 -0.311474
vn 0.662950 0.680795 -0.311474
vn 0.662950 0.680795 -0.311474
vn 0.662950 0.680795 -0.311474
vn 0.344683 0.657258 0.670228
vn 0.290777 0.754616 0.588221
vn 0.053390 0.731652 0.679585
vn -0.003491 0.544854 0.838524
vn -0.710185 0.569282 -0.414192
vn -0.710185 0.569282 -0.414192
vn -0.451388 0.891728 -0.032727
vn -0.418078 0.842067 -0.340785
vn 0.000029 -1.000000 0.000398
vn -0.000007 -1.000000 0.000535
vn -0.431199 0.040342 -0.901354
vn -0.223741 -0.350580 -0.909414
vn -0.396637 0.119498 -0.910165
vn -0.396637 0.119498 -0.910165
vn -0.188858 0.474046 -0.860007
vn -0.188858 0.474046 -0.860008
vn -0.361760 0.589609 0.722143
vn -0.334407 0.753904 0.565510
vn -0.634741 -0.029112 0.772177
vn -0.344618 -0.008300 0.938706
vn -0.402834 0.109974 0.908642
vn -0.402834 0.109974 0.908642
vn -0.518336 -0.209951 0.829004
vn -0.231290 -0.208721 0.950232
vn 0.448643 0.838627 0.308909
vn 0.600385 0.716830 0.354531
vn 0.906725 0.028021 0.420790
vn 0.893399 0.072305 0.443408
vn 0.893399 0.072305 0.443408
vn 0.926214 -0.061103 0.372014
vn 0.000171 -1.000000 0.000675
vn 0.000104 -1.000000 0.000675
vn -0.000043 -1.000000 0.000676
vn -0.901498 0.038048 0.431107
vn -0.924302 -0.150840 0.350590
vn -0.882893 0.108992 0.456751
vn -0.882893 0.108991 0.456751
vn -0.664356 0.611198 0.430195
vn -0.721939 -0.211916 0.658707
vn -0.030007 -0.121373 0.992153
vn -0.025465 -0.147424 0.988746
vn -0.890810 -0.276964 0.360207
vn 0.393990 -0.371225 0.840811
vn 0.388115 -0.369258 0.844402
vn 0.891499 -0.452975 -0.006568
vn 0.891734 -0.452557 0.001756
vn 0.377875 -0.580316 -0.721418
vn 0.384622 -0.581049 -0.717250
vn -0.132054 -0.529440 -0.838007
vn -0.379654 -0.498662 -0.779230
vn -0.946836 -0.319573 -0.037064
vn -0.949356 -0.314197 0.001667
vn -0.949386 -0.314104 0.002304
vn -0.946836 -0.319573 -0.037064
s 1
g rock_9
usemtl initialShadingGroup
f 10/16/1 15/25/2 23/34/3 24/35/4
s 2
f 26/38/5 27/39/6 6/6/7 21/32/8
s 3
f 14/23/9 11/17/10 19/30/11 20/31/12
s 4
f 18/29/13 8/8/14 30/43/15 31/45/16
s 5
f 28/41/17 29/42/18 11/18/19 14/24/20
s 6
f 12/19/21 33/48/22 34/49/23 13/21/24
s 1
f 36/51/25 37/52/26 10/16/1 24/35/4
s 5
f 29/42/18 38/53/27 39/55/28 11/18/19
s 3
f 19/30/11 11/17/10 39/54/29 40/56/30
s 6
f 41/57/31 42/59/32 33/48/22 12/19/21
s 2
f 6/6/7 14/23/33 20/31/34 21/32/8
s off
f 27/40/35 28/41/36 14/24/37 6/12/38
s 2
f 15/25/39 4/4/40 22/33/41 23/34/42
f 13/21/43 34/49/44 25/36/45 5/14/46
s 4
f 7/7/47 18/29/13 31/45/16 32/47/48
s 6
f 12/20/21 19/30/49 40/56/50 41/58/31
f 13/22/51 20/31/52 19/30/49 12/20/21
s 2
f 5/5/53 21/32/8 20/31/34 13/22/54
f 25/37/45 26/38/5 21/32/8 5/5/46
f 16/26/55 23/34/42 22/33/41 3/3/56
s 8
f 9/15/57 24/35/58 23/34/59 16/26/60
f 35/50/61 36/51/62 24/35/58 9/15/57
s 2
f 3/3/56 22/33/41 26/38/5 25/37/45
f 22/33/41 4/4/40 27/39/63 26/38/5
f 15/25/39 28/41/64 27/40/63 4/4/40
s 1
f 10/16/1 29/42/65 28/41/66 15/25/67
f 37/52/26 38/53/68 29/42/65 10/16/1
s 4
f 30/43/15 2/10/69 17/28/70 31/45/16
f 32/47/48 31/45/16 17/28/70 1/9/71
s 8
f 33/48/72 42/59/73 35/50/61 9/15/57
f 34/49/74 33/48/72 9/15/57 16/26/75
s 2
f 25/36/45 34/49/76 16/26/55 3/3/56
s 6
f 1/1/77 17/27/78 36/51/79 35/50/80
f 17/27/78 2/2/81 37/52/82 36/51/79
f 2/2/81 30/44/83 38/53/84 37/52/82
f 39/55/85 38/53/84 30/44/83 8/11/86
f 39/54/85 8/8/86 18/29/87 40/56/50
f 41/58/31 40/56/50 18/29/87 7/7/88
f 7/13/89 32/46/90 42/59/91 41/57/92
f 35/50/80 42/59/91 32/46/90 1/1/77
