# This file uses meters as units for non-parametric coordinates.

mtllib big_rock_3.mtl
g default
v -31.784656 -9.181085 -400.913065
v 44.197252 -9.173178 -400.909744
v -21.180374 86.227693 -411.959606
v 27.253505 83.231951 -412.062480
v -18.790315 87.618451 -446.319849
v 27.803607 84.542317 -450.701531
v -31.817742 -9.209409 -449.569305
v 44.164224 -9.201458 -458.158013
v -24.689653 57.736790 -457.990858
v 42.721858 53.394529 -464.406970
v 42.747196 62.346866 -396.838673
v -28.326620 68.104399 -400.712176
v -8.058176 -9.182100 -400.913517
v -8.091261 -9.210437 -458.161795
v -2.174547 67.480608 -468.729170
v 1.924060 87.105059 -453.793208
v 0.014548 87.192144 -407.037550
v -8.136610 61.354348 -392.958815
v -23.399444 92.494760 -427.755614
v 2.231670 90.217433 -428.372253
v 32.787795 87.210812 -430.245498
v 45.185165 69.381442 -428.789319
v 44.176679 -9.190793 -427.017541
v -8.078783 -9.199748 -427.021314
v -31.805263 -9.198719 -427.020887
v -28.675743 75.973906 -426.219442
v -35.980982 7.608726 -402.691672
v -6.559201 -0.084339 -399.714378
v 48.551230 7.621254 -396.473650
v 52.048470 -0.098296 -426.167131
v 50.572276 10.181328 -462.595776
v -2.326732 10.462275 -476.526548
v -37.193971 10.172821 -456.386611
v -40.687409 14.356204 -426.172320
vt 0.375000 0.000000
vt 0.625000 0.000000
vt 0.375000 0.250000
vt 0.625000 0.250000
vt 0.375000 0.500000
vt 0.625000 0.500000
vt 0.375000 0.750000
vt 0.625000 0.750000
vt 0.375000 1.000000
vt 0.625000 1.000000
vt 0.875000 0.000000
vt 0.875000 0.250000
vt 0.125000 0.000000
vt 0.125000 0.250000
vt 0.125000 0.184606
vt 0.375000 0.565394
vt 0.625000 0.565394
vt 0.875000 0.184606
vt 0.625000 0.184606
vt 0.375000 0.184606
vt 0.453080 0.000000
vt 0.453080 1.000000
vt 0.453080 0.750000
vt 0.453080 0.565394
vt 0.453080 0.500000
vt 0.453080 0.250000
vt 0.453080 0.184606
vt 0.255044 0.250000
vt 0.375000 0.369956
vt 0.453080 0.369956
vt 0.625000 0.369956
vt 0.744956 0.250000
vt 0.744956 0.184606
vt 0.625000 0.880044
vt 0.744956 0.000000
vt 0.453080 0.880044
vt 0.255044 0.000000
vt 0.375000 0.880044
vt 0.255044 0.184606
vt 0.375000 0.028732
vt 0.453080 0.028732
vt 0.625000 0.028732
vt 0.744956 0.028732
vt 0.625000 0.721268
vt 0.875000 0.028732
vt 0.453080 0.721268
vt 0.125000 0.028732
vt 0.375000 0.721268
vt 0.255044 0.028732
vn 0.514370 0.008762 0.857524
vn 0.010474 -0.054263 0.998472
vn 0.010474 -0.054263 0.998472
vn 0.561993 0.015674 0.826993
vn 0.078567 0.996636 0.023336
vn 0.100201 0.985662 -0.135759
vn 0.184254 0.754927 -0.629393
vn 0.006926 0.758619 -0.651498
vn 0.193376 0.073285 -0.978384
vn 0.193376 0.073285 -0.978384
vn 0.193376 0.073285 -0.978384
vn 0.193376 0.073285 -0.978384
vn 0.000138 -1.000000 0.000356
vn 0.000172 -1.000000 0.000343
vn 0.000171 -1.000000 0.000494
vn 0.000119 -1.000000 0.000506
vn 0.989862 0.126717 -0.064164
vn 0.989862 0.126717 -0.064164
vn 0.989862 0.126717 -0.064164
vn 0.989862 0.126717 -0.064164
vn -0.958099 0.212225 -0.192372
vn -0.958099 0.212225 -0.192372
vn -0.958099 0.212225 -0.192372
vn -0.958099 0.212225 -0.192372
vn 0.208053 0.513837 -0.832277
vn -0.062973 0.532394 -0.844151
vn 0.806855 0.520076 -0.280190
vn 0.806855 0.520076 -0.280190
vn 0.806855 0.520076 -0.280190
vn 0.806855 0.520076 -0.280190
vn 0.349632 0.624394 0.698491
vn 0.314463 0.747511 0.585098
vn 0.053390 0.731652 0.679585
vn -0.003491 0.544854 0.838524
vn -0.915408 0.282990 -0.286259
vn -0.915408 0.282990 -0.286259
vn -0.580289 0.811637 -0.067151
vn -0.582770 0.759118 -0.290033
vn 0.000029 -1.000000 0.000398
vn -0.000007 -1.000000 0.000535
vn -0.470449 -0.104172 -0.876257
vn -0.485845 0.110143 -0.867077
vn -0.485845 0.110143 -0.867077
vn -0.270603 -0.234229 -0.933762
vn -0.425039 0.493620 -0.758737
vn -0.425039 0.493620 -0.758737
vn -0.367536 0.551934 0.748523
vn -0.398769 0.744693 0.535178
vn -0.227233 -0.058313 0.972093
vn -0.752896 0.064966 0.654925
vn -0.707227 0.051982 0.705072
vn -0.227233 -0.058313 0.972093
vn 0.508621 0.825116 0.245945
vn 0.728899 0.635179 0.255447
vn 0.990186 0.103251 0.094190
vn 0.990186 0.103251 0.094190
vn 0.000171 -1.000000 0.000675
vn 0.000104 -1.000000 0.000675
vn -0.000043 -1.000000 0.000676
vn -0.976906 0.155001 0.147066
vn -0.976907 0.155001 0.147066
vn -0.899672 0.392858 0.190401
vn -0.721939 -0.211916 0.658707
vn -0.030007 -0.121373 0.992153
vn -0.025465 -0.147424 0.988746
vn -0.890810 -0.276964 0.360207
vn 0.393990 -0.371225 0.840811
vn 0.388115 -0.369258 0.844402
vn 0.891499 -0.452975 -0.006568
vn 0.891734 -0.452557 0.001756
vn 0.377875 -0.580316 -0.721418
vn 0.384622 -0.581049 -0.717250
vn -0.132054 -0.529440 -0.838007
vn -0.379654 -0.498662 -0.779230
vn -0.946836 -0.319573 -0.037064
vn -0.949356 -0.314197 0.001667
vn -0.949386 -0.314104 0.002304
vn -0.946836 -0.319573 -0.037064
s 1
g rock_10
usemtl initialShadingGroup
f 11/19/1 18/27/2 28/41/3 29/42/4
s 2
f 20/30/5 21/31/6 6/6/7 16/25/8
s off
f 15/24/9 10/17/10 31/44/11 32/46/12
s 3
f 14/23/13 8/8/14 23/34/15 24/36/16
s off
f 31/45/17 10/18/18 22/33/19 30/43/20
f 26/39/21 9/15/22 33/47/23 34/49/24
s 2
f 6/6/7 10/17/25 15/24/26 16/25/8
s off
f 21/32/27 22/33/28 10/18/29 6/12/30
s 2
f 11/19/31 4/4/32 17/26/33 18/27/34
f 9/15/35 26/39/36 19/28/37 5/14/38
s 3
f 7/7/39 14/23/13 24/36/16 25/38/40
s 5
f 33/48/41 9/16/42 15/24/43 32/46/44
s 2
f 5/5/45 16/25/8 15/24/26 9/16/46
f 19/29/37 20/30/5 16/25/8 5/5/38
f 12/20/47 18/27/34 17/26/33 3/3/48
s 6
f 18/27/49 12/20/50 27/40/51 28/41/52
s 2
f 3/3/48 17/26/33 20/30/5 19/29/37
f 17/26/33 4/4/32 21/31/53 20/30/5
f 11/19/31 22/33/54 21/32/53 4/4/32
s 1
f 22/33/55 11/19/1 29/42/4 30/43/56
s 3
f 23/34/15 2/10/57 13/22/58 24/36/16
f 25/38/40 24/36/16 13/22/58 1/9/59
s 6
f 12/20/50 26/39/60 34/49/61 27/40/51
s 2
f 19/28/37 26/39/62 12/20/47 3/3/48
s 5
f 1/1/63 13/21/64 28/41/65 27/40/66
f 13/21/64 2/2/67 29/42/68 28/41/65
f 2/2/67 23/35/69 30/43/70 29/42/68
f 31/45/71 30/43/70 23/35/69 8/11/72
f 31/44/71 8/8/72 14/23/73 32/46/44
f 33/48/41 32/46/44 14/23/73 7/7/74
f 7/13/75 25/37/76 34/49/77 33/47/78
f 27/40/66 34/49/77 25/37/76 1/1/63
