# This file uses meters as units for non-parametric coordinates.

mtllib rock_1.mtl
g default
v 50.332660 -2.113184 -95.239192
v 23.013699 -2.879225 -91.018297
v 25.855736 -3.247368 -82.216465
v 28.886431 -2.525894 -73.162362
v 47.508129 -1.484585 -76.959974
v 48.997255 -2.211633 -86.281304
v 59.190439 0.398890 -100.587173
v 13.605555 -0.709223 -93.815369
v 14.986669 -0.907156 -77.791238
v 23.094560 0.316514 -64.323222
v 54.759741 1.015411 -70.774465
v 60.289523 0.188690 -85.518787
v 59.748041 5.620318 -101.738533
v 11.009498 5.441744 -94.942036
v 11.009494 5.441744 -77.044064
v 17.449325 7.996704 -61.529611
v 59.908414 7.996704 -68.004885
v 67.754533 7.996704 -86.649026
v 54.820090 16.204090 -101.600496
v 19.474794 15.750535 -93.068624
v 19.827991 16.176818 -79.196590
v 28.613901 18.128821 -72.017192
v 54.820090 16.204090 -71.697211
v 61.112161 16.204090 -86.649026
v 42.704673 23.195281 -95.693992
v 27.345457 22.078389 -91.687200
v 32.499745 24.716585 -84.454538
v 37.959342 23.600748 -78.224209
v 46.222767 23.377252 -78.105145
v 47.960363 23.687301 -87.071428
v 35.912847 -2.089041 -101.427212
v 34.859866 0.373223 -108.866001
v 34.881536 5.441744 -110.264767
v 34.148319 15.114585 -107.452080
v 36.195292 22.833420 -96.908363
vt 0.000000 0.142857
vt 0.333333 0.142857
vt 0.444444 0.142857
vt 0.555556 0.142857
vt 0.777778 0.142857
vt 0.888889 0.142857
vt 1.000000 0.142857
vt 0.000000 0.285714
vt 0.333333 0.285714
vt 0.444444 0.285714
vt 0.555556 0.285714
vt 0.777778 0.285714
vt 0.888889 0.285714
vt 1.000000 0.285714
vt 0.000000 0.428571
vt 0.333333 0.428571
vt 0.444444 0.428571
vt 0.555556 0.428571
vt 0.777778 0.428571
vt 0.888889 0.428571
vt 1.000000 0.428571
vt 0.000000 0.714286
vt 0.333333 0.714286
vt 0.444444 0.714286
vt 0.555556 0.714286
vt 0.777778 0.714286
vt 0.888889 0.714286
vt 1.000000 0.714286
vt 0.000000 0.857143
vt 0.333333 0.857143
vt 0.444444 0.857143
vt 0.555556 0.857143
vt 0.777778 0.857143
vt 0.888889 0.857143
vt 1.000000 0.857143
vt 0.164594 0.142857
vt 0.164594 0.285714
vt 0.164594 0.428571
vt 0.164594 0.714286
vt 0.164594 0.857143
vn 0.112078 -0.947298 -0.300109
vn 0.056088 -0.991186 -0.120019
vn 0.070626 -0.983280 -0.167847
vn 0.112078 -0.947298 -0.300109
vn -0.186970 -0.974026 -0.127731
vn -0.198673 -0.977355 0.072848
vn -0.186316 -0.975982 0.112896
vn -0.178781 -0.970080 -0.164261
vn -0.168866 -0.971319 0.167404
vn -0.168866 -0.971319 0.167404
vn 0.098758 -0.940593 0.324857
vn 0.085498 -0.969962 0.227737
vn 0.118590 -0.976752 0.178584
vn 0.131972 -0.954451 0.267593
vn 0.101767 -0.994630 0.018821
vn 0.222302 -0.973155 0.059600
vn 0.234655 -0.972026 -0.010179
vn 0.234655 -0.972026 -0.010179
vn 0.306146 0.041427 -0.951083
vn 0.314308 -0.244992 -0.917164
vn 0.314308 -0.244992 -0.917164
vn 0.305307 0.052587 -0.950801
vn -0.885008 -0.464382 0.033323
vn -0.806876 -0.539261 0.241138
vn -0.791793 -0.547709 0.270330
vn -0.885008 -0.464382 0.033323
vn -0.693391 -0.582605 0.424005
vn -0.693391 -0.582605 0.424005
vn 0.164401 -0.345063 0.924069
vn 0.164401 -0.345063 0.924069
vn 0.164401 -0.345063 0.924069
vn 0.164402 -0.345063 0.924069
vn 0.709162 -0.638082 0.299900
vn 0.776285 -0.620909 0.108870
vn 0.779227 -0.619107 0.097529
vn 0.709162 -0.638082 0.299900
vn 0.816289 -0.538993 -0.207747
vn 0.816289 -0.538993 -0.207748
vn 0.288454 0.216479 -0.932701
vn 0.288454 0.216479 -0.932701
vn -0.702909 0.698965 0.131780
vn -0.635051 0.755864 0.159308
vn -0.713149 0.700916 0.011685
vn -0.772766 0.634691 0.000075
vn -0.612381 0.745611 0.262780
vn -0.523696 0.798827 0.296003
vn 0.077146 0.616461 0.783597
vn 0.088450 0.590773 0.801975
vn 0.088450 0.590773 0.801975
vn 0.079667 0.610808 0.787761
vn 0.738803 0.597916 0.310911
vn 0.675380 0.736278 -0.041919
vn 0.662628 0.699948 0.266453
vn 0.738804 0.597916 0.310911
vn 0.776268 0.480967 -0.407526
vn 0.645219 0.684219 -0.339907
vn 0.776268 0.480967 -0.407526
vn 0.119782 0.775374 -0.620038
vn 0.119782 0.775374 -0.620038
vn 0.119782 0.775374 -0.620038
vn 0.119782 0.775374 -0.620038
vn -0.489251 0.852240 0.185256
vn -0.581773 0.812647 0.033820
vn -0.371800 0.863359 0.341138
vn 0.034900 0.704797 0.708550
vn 0.034900 0.704797 0.708550
vn 0.484235 0.873518 -0.049827
vn 0.509567 0.840969 0.181971
vn 0.444080 0.864463 -0.235576
vn 0.046389 -0.998695 0.021355
vn 0.021791 -0.998571 -0.048802
vn 0.041825 0.998946 -0.018887
vn 0.060808 0.995060 0.078472
vn 0.060808 0.995060 0.078472
vn 0.037603 0.998483 -0.040229
vn 0.022920 0.993259 -0.113631
vn 0.022920 0.993259 -0.113631
vn -0.152269 -0.949567 -0.274109
vn -0.152269 -0.949567 -0.274109
vn -0.580547 0.124646 -0.804630
vn -0.580518 0.133207 -0.803277
vn -0.527699 -0.299967 -0.794703
vn -0.527699 -0.299967 -0.794703
vn -0.523794 0.529176 -0.667542
vn -0.537479 0.481337 -0.692409
vn -0.431974 0.741208 -0.513818
vn -0.431974 0.741208 -0.513818
vn -0.202591 0.957584 -0.204915
vn -0.202591 0.957584 -0.204915
vn -0.202591 0.957584 -0.204915
s 1
g rock_1
usemtl initialShadingGroup
f 7/8/1 1/1/2 31/36/3 32/37/4
s 2
f 2/2/5 3/3/6 9/10/7 8/9/8
f 3/3/6 4/4/9 10/11/10 9/10/7
s 1
f 10/11/11 4/4/12 5/5/13 11/12/14
f 5/5/13 6/6/15 12/13/16 11/12/14
f 6/6/15 1/7/17 7/14/18 12/13/16
s 4
f 13/15/19 7/8/20 32/37/21 33/38/22
s 5
f 8/9/23 9/10/24 15/17/25 14/16/26
f 9/10/24 10/11/27 16/18/28 15/17/25
s off
f 16/18/29 10/11/30 11/12/31 17/19/32
s 6
f 11/12/33 12/13/34 18/20/35 17/19/36
f 12/13/34 7/14/37 13/21/38 18/20/35
s 4
f 19/22/39 13/15/19 33/38/22 34/39/40
s 7
f 15/17/41 21/24/42 20/23/43 14/16/44
f 16/18/45 22/25/46 21/24/42 15/17/41
s 8
f 22/25/47 16/18/48 17/19/49 23/26/50
s 9
f 18/20/51 24/27/52 23/26/53 17/19/54
f 13/21/55 19/28/56 24/27/52 18/20/57
s off
f 25/29/58 19/22/59 34/39/60 35/40/61
s 7
f 20/23/43 21/24/42 27/31/62 26/30/63
f 21/24/42 22/25/46 28/32/64 27/31/62
s 8
f 28/32/65 22/25/47 23/26/50 29/33/66
s 9
f 23/26/53 24/27/52 30/34/67 29/33/68
f 24/27/52 19/28/56 25/35/69 30/34/67
s 1
f 5/5/13 4/4/12 3/3/70 6/6/15
f 2/2/71 31/36/3 3/3/70
s 11
f 27/31/72 28/32/73 29/33/74 30/34/75
f 27/31/72 30/34/75 25/29/76 35/40/77
s 2
f 8/9/8 32/37/78 31/36/79 2/2/5
s 12
f 14/16/80 33/38/81 32/37/82 8/9/83
f 20/23/84 34/39/85 33/38/81 14/16/80
f 26/30/86 35/40/87 34/39/85 20/23/84
s 1
f 3/3/70 31/36/3 1/7/2 6/6/15
s off
f 27/31/88 35/40/89 26/30/90
