# This file uses meters as units for non-parametric coordinates.

mtllib rock_6.mtl
g default
v -71.634307 -0.043366 -40.116239
v -90.749046 -1.432299 -37.696902
v -88.611033 -1.828252 -31.375494
v -85.970384 -0.918757 -25.253475
v -71.732987 0.163940 -28.176888
v -70.830345 -0.688481 -34.059297
v -65.067962 3.057527 -42.541444
v -95.368282 2.137223 -38.859793
v -95.434073 2.828508 -28.798753
v -89.728113 4.057187 -19.913891
v -66.515612 1.524900 -23.762179
v -63.091953 4.397795 -33.186407
v -64.836831 10.547610 -43.145109
v -95.805517 9.157308 -38.751376
v -96.919127 10.271358 -27.563095
v -92.705374 15.097300 -17.294726
v -64.065667 10.710459 -21.662458
v -61.628350 11.244128 -32.658362
v -67.643278 28.686754 -42.828458
v -91.511417 26.479166 -37.973883
v -90.698734 27.969039 -30.066508
v -86.652673 30.473774 -22.360833
v -67.497867 28.098426 -24.153024
v -63.866450 28.596257 -34.062978
v -71.098503 33.050478 -41.768043
v -88.592941 34.760728 -37.803420
v -86.486860 37.187879 -32.278521
v -84.171680 35.912015 -26.988801
v -73.296975 35.459427 -28.475334
v -72.124923 36.087288 -34.523314
v -80.789684 -0.173973 -43.342145
v -81.255610 3.637982 -48.795887
v -81.490249 10.410595 -49.674374
v -81.661946 26.496069 -47.728493
v -81.537305 34.247704 -44.717662
vt 0.000000 0.142857
vt 0.333333 0.142857
vt 0.444444 0.142857
vt 0.555556 0.142857
vt 0.777778 0.142857
vt 0.888889 0.142857
vt 1.000000 0.142857
vt 0.000000 0.285714
vt 0.333333 0.285714
vt 0.444444 0.285714
vt 0.555556 0.285714
vt 0.777778 0.285714
vt 0.888889 0.285714
vt 1.000000 0.285714
vt 0.000000 0.428571
vt 0.333333 0.428571
vt 0.444444 0.428571
vt 0.555556 0.428571
vt 0.777778 0.428571
vt 0.888889 0.428571
vt 1.000000 0.428571
vt 0.000000 0.714286
vt 0.333333 0.714286
vt 0.444444 0.714286
vt 0.555556 0.714286
vt 0.777778 0.714286
vt 0.888889 0.714286
vt 1.000000 0.714286
vt 0.000000 0.857143
vt 0.333333 0.857143
vt 0.444444 0.857143
vt 0.555556 0.857143
vt 0.777778 0.857143
vt 0.888889 0.857143
vt 1.000000 0.857143
vt 0.164594 0.142857
vt 0.164594 0.285714
vt 0.164594 0.428571
vt 0.164594 0.714286
vt 0.164594 0.857143
vn 0.342766 -0.873561 -0.345546
vn 0.297176 -0.903973 -0.307439
vn -0.021563 -0.901616 -0.432000
vn -0.027752 -0.803904 -0.594111
vn -0.193436 -0.958555 -0.209175
vn -0.529818 -0.820780 0.213571
vn -0.501514 -0.818311 0.280805
vn -0.441002 -0.827988 -0.346341
vn -0.090291 -0.912248 0.399564
vn -0.121978 -0.859648 0.496111
vn 0.184867 -0.948146 0.258542
vn 0.175115 -0.894919 0.410433
vn 0.237340 -0.971310 -0.015077
vn 0.466463 -0.884326 -0.019518
vn 0.349231 0.027800 -0.936624
vn 0.359929 -0.096347 -0.927992
vn 0.359929 -0.096347 -0.927992
vn 0.348424 0.035166 -0.936677
vn -0.990843 -0.127591 -0.044155
vn -0.990843 -0.127591 -0.044155
vn -0.990843 -0.127591 -0.044155
vn -0.990843 -0.127591 -0.044155
vn -0.804602 -0.301009 0.511868
vn -0.804602 -0.301009 0.511868
vn -0.804602 -0.301009 0.511868
vn -0.804602 -0.301010 0.511868
vn 0.123558 -0.222412 0.967092
vn 0.123558 -0.222412 0.967092
vn 0.123558 -0.222412 0.967092
vn 0.123558 -0.222412 0.967092
vn 0.937493 -0.265691 0.224755
vn 0.980203 -0.197969 -0.003081
vn 0.998303 0.052878 0.024393
vn 0.937493 -0.265691 0.224755
vn 0.963904 -0.115211 -0.240033
vn 0.946783 0.058347 -0.316541
vn 0.341599 0.091561 -0.935375
vn 0.341599 0.091561 -0.935375
vn -0.930374 0.346759 0.119003
vn -0.920146 0.370520 0.126677
vn -0.950864 0.308899 -0.020953
vn -0.957097 0.284708 -0.053906
vn -0.887636 0.386647 0.250212
vn -0.876476 0.404061 0.261771
vn 0.154182 0.210324 0.965397
vn 0.154182 0.210324 0.965397
vn 0.154182 0.210324 0.965397
vn 0.154182 0.210324 0.965397
vn 0.985242 0.158269 -0.065179
vn 0.941240 0.185290 0.282374
vn 0.941240 0.185290 0.282374
vn 0.931782 0.121957 -0.341919
vn 0.269843 0.372555 -0.887912
vn 0.269843 0.372555 -0.887912
vn 0.269843 0.372555 -0.887912
vn 0.269843 0.372555 -0.887912
vn -0.877445 0.441536 0.187448
vn -0.918919 0.384614 0.087518
vn -0.787329 0.516574 0.336548
vn 0.142358 0.591751 0.793451
vn 0.142358 0.591751 0.793451
vn 0.142358 0.591751 0.793451
vn 0.142358 0.591751 0.793451
vn 0.662036 0.706851 0.249140
vn 0.691395 0.720662 0.051189
vn 0.692277 0.720568 0.039173
vn 0.662036 0.706851 0.249140
vn 0.683619 0.687837 -0.244020
vn 0.683619 0.687837 -0.244020
vn 0.071727 -0.997424 0.000343
vn 0.015915 0.996398 -0.083289
vn 0.083747 0.984074 0.156793
vn 0.083747 0.984074 0.156793
vn 0.030641 0.992015 -0.122339
vn 0.014476 0.964418 -0.263986
vn 0.204600 0.912742 -0.353611
vn -0.631054 0.070740 -0.772507
vn -0.632435 0.075981 -0.770878
vn -0.585335 -0.073594 -0.807445
vn -0.585335 -0.073594 -0.807445
vn -0.654995 0.170404 -0.736168
vn -0.652851 0.161177 -0.740140
vn -0.673105 0.264770 -0.690526
vn -0.673105 0.264770 -0.690526
vn -0.030086 0.969998 -0.241244
s 1
g rock_3
usemtl initialShadingGroup
f 7/8/1 1/1/2 31/36/3 32/37/4
f 2/2/5 3/3/6 9/10/7 8/9/8
f 3/3/6 4/4/9 10/11/10 9/10/7
f 10/11/10 4/4/9 5/5/11 11/12/12
f 5/5/11 6/6/13 12/13/14 11/12/12
f 6/6/13 1/7/2 7/14/1 12/13/14
s 3
f 13/15/15 7/8/16 32/37/17 33/38/18
s off
f 8/9/19 9/10/20 15/17/21 14/16/22
f 9/10/23 10/11/24 16/18/25 15/17/26
f 16/18/27 10/11/28 11/12/29 17/19/30
s 4
f 11/12/31 12/13/32 18/20/33 17/19/34
f 12/13/32 7/14/35 13/21/36 18/20/33
s 3
f 19/22/37 13/15/15 33/38/18 34/39/38
s 5
f 15/17/39 21/24/40 20/23/41 14/16/42
f 16/18/43 22/25/44 21/24/40 15/17/39
s off
f 22/25/45 16/18/46 17/19/47 23/26/48
s 4
f 18/20/33 24/27/49 23/26/50 17/19/51
f 13/21/36 19/28/52 24/27/49 18/20/33
s off
f 25/29/53 19/22/54 34/39/55 35/40/56
s 5
f 20/23/41 21/24/40 27/31/57 26/30/58
f 21/24/40 22/25/44 28/32/59 27/31/57
s off
f 28/32/60 22/25/61 23/26/62 29/33/63
s 6
f 23/26/64 24/27/65 30/34/66 29/33/67
f 24/27/65 19/28/68 25/35/69 30/34/66
s 1
f 5/5/11 4/4/9 3/3/70 6/6/13
f 31/36/3 6/6/13 3/3/70 2/2/5
s 7
f 27/31/71 28/32/72 29/33/73 30/34/74
f 35/40/75 30/34/74 25/29/76
s 1
f 8/9/8 32/37/4 31/36/3 2/2/5
s 8
f 14/16/77 33/38/78 32/37/79 8/9/80
f 20/23/81 34/39/82 33/38/78 14/16/77
f 26/30/83 35/40/84 34/39/82 20/23/81
s 7
f 27/31/71 30/34/74 35/40/75 26/30/85
s 1
f 31/36/3 1/7/2 6/6/13
