# This file uses meters as units for non-parametric coordinates.

mtllib rock_5.mtl
g default
v -5.745261 -0.074213 -7.979627
v -14.157862 0.275478 -7.576327
v -15.444041 -0.686994 -1.932605
v -10.844507 -0.850041 1.735988
v -5.487029 -0.433488 2.684795
v -0.496774 -0.194454 -2.925182
v -2.267213 1.847046 -9.475435
v -15.981654 1.847046 -9.475436
v -18.315487 1.178872 -2.190912
v -12.246754 1.007471 3.437942
v -1.633198 1.403233 4.217601
v 2.356165 1.403233 -2.402747
v -1.949625 4.990438 -8.546532
v -16.199727 4.990438 -9.142430
v -19.754144 4.990438 -1.793638
v -13.926611 4.982255 3.207653
v -2.746614 4.982255 3.809702
v 1.088517 4.982255 -2.402747
v -6.625532 8.975079 -4.690931
v -12.081952 7.859129 -5.359584
v -13.464828 9.193578 -1.739085
v -12.891442 8.715613 1.992901
v -6.643908 9.343645 1.057545
v -3.251202 8.882012 -2.321689
v -8.914182 -1.614765 -1.767947
v -8.900504 9.965051 -1.741974
vt 0.000000 0.166667
vt 0.166667 0.166667
vt 0.333333 0.166667
vt 0.500000 0.166667
vt 0.666667 0.166667
vt 0.833333 0.166667
vt 1.000000 0.166667
vt 0.000000 0.333333
vt 0.166667 0.333333
vt 0.333333 0.333333
vt 0.500000 0.333333
vt 0.666667 0.333333
vt 0.833333 0.333333
vt 1.000000 0.333333
vt 0.000000 0.500000
vt 0.166667 0.500000
vt 0.333333 0.500000
vt 0.500000 0.500000
vt 0.666667 0.500000
vt 0.833333 0.500000
vt 1.000000 0.500000
vt 0.000000 0.833333
vt 0.166667 0.833333
vt 0.333333 0.833333
vt 0.500000 0.833333
vt 0.666667 0.833333
vt 0.833333 0.833333
vt 1.000000 0.833333
vt 0.250000 0.000000
vt 0.583333 0.000000
vt 0.916667 0.000000
vt 0.083333 1.000000
vt 0.416667 1.000000
vt 0.750000 1.000000
vn -0.024088 -0.690893 -0.722556
vn -0.024088 -0.690893 -0.722556
vn -0.024088 -0.690893 -0.722556
vn -0.024088 -0.690893 -0.722556
vn -0.497263 -0.832511 -0.244243
vn -0.515017 -0.832302 0.205016
vn -0.815654 -0.542349 0.201411
vn -0.497263 -0.832511 -0.244243
vn -0.463365 -0.727847 0.505502
vn -0.597971 -0.452955 0.661258
vn -0.050608 -0.638706 0.767785
vn -0.050608 -0.638706 0.767785
vn -0.050608 -0.638706 0.767785
vn -0.050608 -0.638706 0.767785
vn 0.376239 -0.889629 0.258851
vn 0.376239 -0.889629 0.258851
vn 0.376239 -0.889629 0.258851
vn 0.376239 -0.889629 0.258851
vn 0.407155 -0.834939 -0.370272
vn 0.407155 -0.834939 -0.370272
vn 0.407155 -0.834939 -0.370272
vn 0.407155 -0.834939 -0.370272
vn 0.020889 0.196438 -0.980294
vn 0.020889 0.196438 -0.980294
vn 0.012451 0.466088 -0.884651
vn 0.011865 0.482355 -0.875896
vn -0.910147 -0.177499 -0.374336
vn -0.910956 0.383379 0.152247
vn -0.825124 0.388393 -0.410269
vn -0.643292 -0.272985 0.715300
vn -0.064250 0.060398 0.996104
vn -0.064250 0.060398 0.996105
vn -0.038267 0.219563 0.974847
vn -0.031962 0.256428 0.966035
vn 0.814669 0.299298 0.496725
vn 0.814669 0.299298 0.496725
vn 0.714199 0.526066 0.461708
vn 0.714806 0.525026 0.461953
vn 0.852513 0.187884 -0.487772
vn 0.852513 0.187884 -0.487772
vn 0.737091 0.491902 -0.463388
vn 0.714222 0.531082 -0.455894
vn 0.000700 0.744349 -0.667790
vn 0.000700 0.744349 -0.667790
vn -0.576068 0.815385 0.057381
vn -0.455071 0.836030 -0.306534
vn -0.608162 0.631565 0.480900
vn -0.608162 0.631565 0.480900
vn 0.001299 0.440428 0.897787
vn 0.001299 0.440428 0.897787
vn 0.579745 0.708283 0.402779
vn 0.579745 0.708283 0.402779
vn 0.511472 0.772632 -0.376079
vn 0.511472 0.772632 -0.376079
vn -0.086512 -0.967694 -0.236819
vn 0.020941 -0.988104 -0.152357
vn 0.029503 -0.997283 -0.067498
vn -0.081848 -0.985490 -0.148696
vn -0.059224 -0.981587 0.181602
vn 0.101216 -0.994583 0.023672
vn 0.161303 -0.986206 -0.037130
vn -0.028221 0.996139 -0.083124
vn -0.008142 0.963763 -0.266637
vn -0.143864 0.905013 -0.400317
vn -0.132201 0.986017 -0.101459
vn -0.107546 0.971734 0.210158
vn 0.013569 0.995071 0.098228
vn 0.181743 0.981368 -0.062340
s off
g rock_4
usemtl initialShadingGroup
f 1/1/1 2/2/2 8/9/3 7/8/4
s 1
f 2/2/5 3/3/6 9/10/7 8/9/8
f 3/3/6 4/4/9 10/11/10 9/10/7
s off
f 4/4/11 5/5/12 11/12/13 10/11/14
f 5/5/15 6/6/16 12/13/17 11/12/18
f 6/6/19 1/7/20 7/14/21 12/13/22
s 2
f 7/8/23 8/9/24 14/16/25 13/15/26
s 1
f 8/9/27 9/10/7 15/17/28 14/16/29
f 9/10/7 10/11/10 16/18/30 15/17/28
s 3
f 10/11/31 11/12/32 17/19/33 16/18/34
s 4
f 11/12/35 12/13/36 18/20/37 17/19/38
s 5
f 12/13/39 7/14/40 13/21/41 18/20/42
s 2
f 14/16/25 20/23/43 19/22/44 13/15/26
s 1
f 15/17/28 21/24/45 20/23/46 14/16/29
f 16/18/47 22/25/48 21/24/45 15/17/28
s 3
f 17/19/33 23/26/49 22/25/50 16/18/34
s 4
f 18/20/37 24/27/51 23/26/52 17/19/38
s 5
f 13/21/41 19/28/53 24/27/54 18/20/42
s 6
f 2/2/55 1/1/56 25/29/57 3/3/58
f 4/4/59 3/3/58 25/30/57 5/5/60
f 6/6/61 5/5/60 25/31/57 1/7/56
s 7
f 26/32/62 19/22/63 20/23/64 21/24/65
f 26/33/62 21/24/65 22/25/66 23/26/67
f 26/34/62 23/26/67 24/27/68 19/28/63
